# xmcd
#
# Track frame offsets: 
#        182
#        17575
#        41082
#        66057
#        87387
#        106820
#        121145
#        143402
#        161890
#
# Disc length: 2414 seconds
#
# Revision: 6
# Processed by: cddbd v1.5.2PL0 Copyright (c) Steve Scherf et al.
# Submitted via: ExactAudioCopyFreeDBPlugin 1.0
#
DISCID=6d096c09
DTITLE=Ry Cooder - Bop Till You Drop
DYEAR=1979
DGENRE=Blues
TTITLE0=Little Sister
TTITLE1=Go Home, Girl
TTITLE2=The Very Thing That Makes You Rich (Makes Me Poor)
TTITLE3=I Think It's Going To Work Out Fine
TTITLE4=Down In Hollywood
TTITLE5=Look At Granny Run Run
TTITLE6=Trouble, You Can't Fool Me
TTITLE7=Don't Mess Up A Good Thing
TTITLE8=I Can't Win
EXTD=
EXTT0=
EXTT1=
EXTT2=
EXTT3=
EXTT4=
EXTT5=
EXTT6=
EXTT7=
EXTT8=
PLAYORDER=
